HIERARCHY
ROOT Hips
{
    OFFSET 0.000000 0.000000 0.000000
    CHANNELS 6 Xposition Yposition Zposition Zrotation Xrotation Yrotation
    JOINT Spine
    {
        OFFSET -0.000000 14.517291 0.000000
        CHANNELS 3 Zrotation Xrotation Yrotation
        JOINT Spine1
        {
            OFFSET -0.000000 37.558300 0.000000
            CHANNELS 3 Zrotation Xrotation Yrotation
            JOINT Neck
            {
                OFFSET -0.000000 37.404057 3.400369
                CHANNELS 3 Zrotation Xrotation Yrotation
                JOINT Head
                {
                    OFFSET -0.000000 24.785618 -3.540803
                    CHANNELS 3 Zrotation Xrotation Yrotation
                    End Site
                    {
                        OFFSET -0.000000 35.408028 0.000000
                    }
                }
            }
            JOINT LeftShoulder
            {
                OFFSET 6.992933 33.973492 -0.192664
                CHANNELS 3 Zrotation Xrotation Yrotation
                JOINT LeftArm
                {
                    OFFSET 21.527611 0.000000 0.000000
                    CHANNELS 3 Zrotation Xrotation Yrotation
                    JOINT LeftForeArm
                    {
                        OFFSET 56.353916 0.000000 0.000000
                        CHANNELS 3 Zrotation Xrotation Yrotation
                        JOINT LeftHand
                        {
                            OFFSET 47.774071 0.000000 0.000000
                            CHANNELS 3 Zrotation Xrotation Yrotation
                            End Site
                            {
                                OFFSET 26.556021 0.000000 0.000000
                            }
                        }
                    }
                }
            }
            JOINT RightShoulder
            {
                OFFSET -7.065357 33.973492 -0.192664
                CHANNELS 3 Zrotation Xrotation Yrotation
                JOINT RightArm
                {
                    OFFSET -21.527611 0.000000 0.000000
                    CHANNELS 3 Zrotation Xrotation Yrotation
                    JOINT RightForeArm
                    {
                        OFFSET -56.353916 0.000000 0.000000
                        CHANNELS 3 Zrotation Xrotation Yrotation
                        JOINT RightHand
                        {
                            OFFSET -47.774071 0.000000 0.000000
                            CHANNELS 3 Zrotation Xrotation Yrotation
                            End Site
                            {
                                OFFSET -26.556021 0.000000 0.000000
                            }
                        }
                    }
                }
            }
        }
    }
    JOINT LeftUpLeg
    {
        OFFSET 17.704014 0.000000 0.000000
        CHANNELS 3 Zrotation Xrotation Yrotation
        JOINT LeftLeg
        {
            OFFSET -0.000000 -81.181816 0.000000
            CHANNELS 3 Zrotation Xrotation Yrotation
            JOINT LeftFoot
            {
                OFFSET -0.000000 -62.821102 0.000000
                CHANNELS 3 Zrotation Xrotation Yrotation
                JOINT LeftToeBase
                {
                    OFFSET -0.000000 -11.507608 26.556021
                    CHANNELS 3 Zrotation Xrotation Yrotation
                    End Site
                    {
                        OFFSET -0.000000 0.000000 7.081605
                    }
                }
            }
        }
    }
    JOINT RightUpLeg
    {
        OFFSET -17.704014 0.000000 0.000000
        CHANNELS 3 Zrotation Xrotation Yrotation
        JOINT RightLeg
        {
            OFFSET -0.000000 -81.181816 0.000000
            CHANNELS 3 Zrotation Xrotation Yrotation
            JOINT RightFoot
            {
                OFFSET -0.000000 -62.821102 0.000000
                CHANNELS 3 Zrotation Xrotation Yrotation
                JOINT RightToeBase
                {
                    OFFSET -0.000000 -11.507608 26.556021
                    CHANNELS 3 Zrotation Xrotation Yrotation
                    End Site
                    {
                        OFFSET -0.000000 0.000000 7.081605
                    }
                }
            }
        }
    }
}
MOTION
Frames:    5
Frame Time:    0.008333
-21.913820    163.880539    -78.817406    -8.503595    -21.919605    43.120422    3.451150    4.956586    -5.145345    3.744517    8.824293    -1.956421    22.125328    -0.539492    -0.882697    -0.221752    -1.240973    -4.389982    12.717005    7.548863    -22.145315    -36.370682    22.286631    -37.520203    -2.093310    -33.930008    -110.397385    -2.566211    -36.189701    -11.172727    5.157128    -3.386671    -11.557755    23.894192    -19.956568    16.995956    -13.475464    -20.058138    81.040123    -1.846410    -9.173093    20.953838    24.464592    -0.606700    5.685558    -4.850053    36.169930    -16.702160    8.523189    -21.327444    35.291618    0.000000    0.000000    0.000000    -88.130936    -44.700550    -53.361683    7.861699    15.820885    -8.414874    21.933165    13.873593    -37.271664    0.000000    0.000000    0.000000    
-21.917973    163.862091    -78.839981    -8.492661    -21.913137    43.124352    3.425813    4.924595    -5.143102    3.769870    8.894480    -1.960565    22.120882    -0.552325    -0.865210    -0.228020    -1.218561    -4.374552    12.711684    7.553493    -22.126793    -36.360447    22.272556    -37.559288    -2.143378    -33.901134    -110.404282    -2.500700    -36.226402    -11.113664    5.197823    -3.262865    -11.583429    23.792717    -19.375914    16.666351    -12.037893    -18.931547    81.694901    -2.218031    -9.174184    20.603802    24.450495    -0.634533    5.657991    -4.876835    36.221649    -16.668064    8.547351    -21.336975    35.292313    0.000000    0.000000    0.000000    -88.172867    -44.703644    -53.405121    7.874727    15.851277    -8.386633    21.939753    13.900175    -37.250366    0.000000    0.000000    0.000000    
-21.927744    163.841568    -78.866486    -8.493242    -21.897909    43.123024    3.403927    4.887122    -5.144956    3.792119    8.948941    -1.965398    22.117758    -0.565781    -0.844619    -0.232181    -1.184147    -4.355892    12.697147    7.552244    -22.098776    -36.351616    22.302225    -37.587521    -2.156054    -33.913830    -110.396355    -2.434467    -36.258938    -11.076626    5.260101    -3.065199    -11.639648    23.747753    -18.727346    16.453074    -10.902387    -17.939644    82.080048    -2.201356    -9.055829    20.322767    24.441780    -0.675336    5.634055    -4.909335    36.269684    -16.663647    8.580911    -21.346565    35.321377    0.000000    0.000000    0.000000    -88.224449    -44.715519    -53.492455    7.864405    15.888382    -8.346010    21.969631    13.926358    -37.243156    0.000000    0.000000    0.000000    
-21.941183    163.820343    -78.889420    -8.496847    -21.885239    43.115734    3.367410    4.840014    -5.146374    3.837253    9.018313    -1.972687    22.093349    -0.548234    -0.829415    -0.211828    -1.195637    -4.329598    12.679245    7.547890    -22.067997    -36.347836    22.316410    -37.623886    -2.138738    -33.962051    -110.437584    -2.349630    -36.301117    -10.661819    5.324689    -2.885947    -11.675885    23.701014    -18.107721    16.243807    -9.838175    -16.885374    82.389015    -2.107397    -8.825855    20.124262    24.444357    -0.712264    5.618361    -4.953114    36.320141    -16.651346    8.611489    -21.356710    35.348877    0.000000    0.000000    0.000000    -88.270348    -44.732658    -53.570011    7.859590    15.918130    -8.311865    21.960114    13.970347    -37.241699    0.000000    0.000000    0.000000    
-21.948477    163.808487    -78.909393    -8.494371    -21.892967    43.116604    3.336407    4.814817    -5.143153    3.880378    9.088649    -1.978112    22.099890    -0.536628    -0.819179    -0.208964    -1.221837    -4.317291    12.673628    7.537174    -22.045017    -36.373631    22.325596    -37.636948    -2.251105    -33.895378    -110.495438    -2.758232    -36.338249    -10.706630    5.442892    -2.679167    -11.746319    23.654520    -17.081570    16.118376    -9.309496    -16.383177    82.404518    -1.785918    -8.709337    19.948915    24.461273    -0.718507    5.604573    -5.002100    36.339500    -16.636503    8.649987    -21.364256    35.364300    0.000000    0.000000    0.000000    -88.280556    -44.726971    -53.595612    7.871910    15.936210    -8.272825    21.993673    13.958637    -37.258621    0.000000    0.000000    0.000000    
